<?xml version="1.0" standalone="no"?>
<!DOCTYPE svg PUBLIC "-//W3C//DTD SVG 20010904//EN"
 "http://www.w3.org/TR/2001/REC-SVG-20010904/DTD/svg10.dtd">
<svg version="1.0" xmlns="http://www.w3.org/2000/svg"
 width="700.000000pt" height="700.000000pt" viewBox="0 0 700.000000 700.000000"
 preserveAspectRatio="xMidYMid meet">
<metadata>
Created by potrace 1.11, written by Peter Selinger 2001-2013
</metadata>
<g transform="translate(0.000000,700.000000) scale(0.100000,-0.100000)"
fill="#000000" stroke="none">
<path d="M4906 5669 c-40 -10 -88 -38 -121 -73 -73 -76 -175 -234 -243 -376
-81 -170 -101 -224 -312 -835 -21 -60 -99 -274 -173 -475 -74 -201 -160 -435
-192 -520 -31 -85 -62 -171 -70 -190 -15 -37 -270 -727 -312 -845 -14 -38 -29
-74 -33 -78 -8 -9 -172 486 -220 668 -5 17 -29 100 -54 185 -47 164 -149 532
-211 765 -35 135 -110 407 -140 510 -62 214 -165 586 -169 610 -15 103 -97
448 -114 481 -11 21 -37 56 -58 77 -96 96 -293 84 -386 -22 -52 -59 -71 -116
-70 -206 1 -44 3 -89 6 -100 6 -30 37 -177 42 -200 12 -64 127 -494 144 -545
18 -51 210 -733 270 -960 174 -661 382 -1343 540 -1775 28 -77 58 -160 67
-185 29 -84 79 -185 111 -221 102 -116 296 -127 403 -23 86 84 250 449 459
1019 50 138 95 259 99 270 20 48 44 113 115 305 169 461 237 646 245 665 5 11
46 121 91 245 45 124 85 234 90 245 17 45 62 172 135 385 42 124 91 259 107
300 44 106 150 310 212 405 68 104 88 157 87 226 -2 173 -177 309 -345 268z"/>
</g>
</svg>
